<?xml version="1.0" standalone="no"?>
<svg version="1.0" xmlns="http://www.w3.org/2000/svg"
 width="150pt" height="150pt" viewBox="0 0 150 150"
 preserveAspectRatio="xMidYMid meet">
<g transform="translate(0.000000,150.000000) scale(0.100000,-0.100000)"
fill="#10b981" stroke="none">
<path d="M366 1434 c-150 -41 -245 -133 -292 -284 l-14 -45 0 -364 0 -365 11
-35 c6 -20 24 -64 41 -98 l30 -62 51 -44 c60 -51 99 -71 180 -92 l58 -15 341
0 340 0 59 15 c33 9 74 24 92 35 17 11 41 24 53 29 51 23 122 123 155 219 l19
55 0 363 0 362 -29 71 c-57 141 -145 217 -294 256 l-58 15 -347 -1 -347 -1
-49 -14z m517 -461 c50 -28 68 -45 89 -87 l20 -38 -7 -52 -7 -51 -44 -43 -44
-42 18 -28 c11 -15 38 -55 60 -88 l40 -62 -11 -11 -11 -11 -62 0 -63 0 -32 68
c-17 37 -41 79 -51 95 l-19 27 -22 0 c-12 0 -28 -4 -36 -9 l-14 -9 10 -76 9
-77 -12 -10 -12 -10 -58 3 -57 3 1 258 c0 141 1 259 1 262 1 3 64 5 142 5
l141 0 31 -17z"/>
<path d="M703 879 l-13 -13 0 -58 0 -58 26 -6 c35 -9 93 2 115 22 l19 17 0 32
0 32 -20 18 -20 18 -47 4 -48 5 -12 -13z"/>
</g>
</svg>
