<?xml version="1.0" standalone="no"?>
<!DOCTYPE svg PUBLIC "-//W3C//DTD SVG 20010904//EN"
 "http://www.w3.org/TR/2001/REC-SVG-20010904/DTD/svg10.dtd">
<svg version="1.0" xmlns="http://www.w3.org/2000/svg"
 width="438.000000pt" height="150.000000pt" viewBox="0 0 438.000000 150.000000"
 preserveAspectRatio="xMidYMid meet">
<g transform="translate(0.000000,150.000000) scale(0.100000,-0.100000)"
fill="#10b981" stroke="none">
<path d="M366 1434 c-150 -41 -245 -133 -292 -284 l-14 -45 0 -364 0 -365 11
-35 c6 -20 24 -64 41 -98 l30 -62 51 -44 c60 -51 99 -71 180 -92 l58 -15 341
0 340 0 59 15 c33 9 74 24 92 35 17 11 41 24 53 29 51 23 122 123 155 219 l19
55 0 363 0 362 -29 71 c-57 141 -145 217 -294 256 l-58 15 -347 -1 -347 -1
-49 -14z m517 -461 c50 -28 68 -45 89 -87 l20 -38 -7 -52 -7 -51 -44 -43 -44
-42 18 -28 c11 -15 38 -55 60 -88 l40 -62 -11 -11 -11 -11 -62 0 -63 0 -32 68
c-17 37 -41 79 -51 95 l-19 27 -22 0 c-12 0 -28 -4 -36 -9 l-14 -9 10 -76 9
-77 -12 -10 -12 -10 -58 3 -57 3 1 258 c0 141 1 259 1 262 1 3 64 5 142 5
l141 0 31 -17z"/>
<path d="M703 879 l-13 -13 0 -58 0 -58 26 -6 c35 -9 93 2 115 22 l19 17 0 32
0 32 -20 18 -20 18 -47 4 -48 5 -12 -13z"/>
<path d="M3653 1004 c-41 -20 -61 -51 -65 -100 l-3 -39 -28 -3 c-32 -4 -42
-21 -33 -56 l6 -24 31 -11 31 -11 -3 -137 c-2 -76 0 -144 4 -150 9 -14 61 -16
92 -4 l20 8 0 144 0 144 35 11 35 12 3 36 3 36 -28 0 c-15 0 -34 4 -42 9 l-13
8 11 22 12 21 26 0 26 0 13 18 c7 9 14 29 14 43 l0 27 -22 6 c-40 10 -92 6
-125 -10z"/>
<path d="M1837 981 l-18 -7 -2 -247 -2 -248 9 -9 c11 -11 59 -13 94 -3 l24 6
-3 86 -3 86 37 3 37 3 20 -34 c12 -19 33 -59 48 -88 l27 -54 26 -9 c30 -10 99
0 99 15 0 5 -15 34 -34 62 -18 29 -41 69 -50 88 l-17 36 39 39 39 39 7 45 c11
74 -15 136 -72 171 l-30 18 -129 5 c-70 2 -136 1 -146 -3z m238 -116 l25 -24
0 -30 0 -30 -27 -21 -27 -21 -55 3 -56 3 0 60 c0 33 4 66 8 73 l9 12 50 0 49
0 24 -25z"/>
<path d="M2845 864 c-11 -3 -29 -7 -40 -9 -28 -6 -79 -53 -99 -92 l-16 -32 0
-66 0 -66 16 -30 c18 -35 38 -57 78 -82 l28 -19 67 -1 66 -1 32 17 c17 9 41
30 53 47 l21 30 -3 22 -3 22 -33 10 -33 9 -32 -31 -33 -32 -28 0 c-42 0 -64
17 -77 59 l-12 39 7 37 c4 20 16 45 27 56 l19 19 32 0 32 0 31 -30 31 -30 37
11 37 10 0 20 c0 67 -119 133 -205 113z"/>
<path d="M3860 863 c-19 -3 -39 -8 -43 -13 l-9 -8 10 -18 c9 -18 28 -64 57
-144 7 -19 27 -71 44 -116 46 -120 41 -149 -28 -156 l-33 -3 -15 -38 c-19 -46
-17 -49 48 -55 l52 -5 42 23 c52 28 62 45 114 185 23 61 45 119 50 130 5 11
20 47 32 80 13 33 29 69 36 80 18 26 16 52 -3 59 -22 8 -87 7 -101 -2 -11 -7
-61 -152 -77 -224 -13 -58 -29 -33 -71 112 -24 83 -46 124 -64 118 -3 0 -22
-3 -41 -5z"/>
<path d="M2343 840 c-18 -10 -40 -31 -49 -46 l-18 -26 19 -14 c24 -18 65 -18
90 0 11 7 34 16 51 20 l31 7 23 -19 23 -19 -6 -16 -6 -17 -27 0 c-14 0 -57 -7
-95 -17 l-68 -16 -23 -24 -22 -23 0 -51 -1 -51 33 -29 32 -29 62 0 61 0 20 17
19 18 13 -18 12 -17 51 0 51 0 -1 133 c0 72 -5 149 -10 170 l-9 37 -39 25 -40
25 -72 0 -73 0 -32 -20z m165 -217 l3 -23 -25 -25 -25 -25 -29 0 c-15 0 -36 6
-46 13 l-18 13 3 19 4 19 50 18 c61 21 79 19 83 -9z"/>
<path d="M3199 842 c-36 -24 -54 -43 -73 -79 l-16 -32 0 -71 0 -70 24 -39 c14
-21 41 -49 61 -61 l36 -22 73 0 73 0 29 18 c16 10 37 26 47 36 l18 19 -3 22
-3 22 -37 3 -38 3 -22 -15 -22 -16 -48 0 -47 0 -15 22 c-41 58 -17 71 129 67
l104 -4 10 10 10 10 -10 49 -9 49 -26 34 c-14 18 -38 40 -54 48 l-29 15 -68
-1 -68 0 -26 -17z m165 -94 c22 -32 12 -38 -64 -38 -76 0 -86 6 -64 38 l15 22
49 0 49 0 15 -22z"/>
</g>
</svg>
